<?xml version="1.0" encoding="UTF-8" standalone="no"?>
<svg
   version="1.0"
   width="1242.000000pt"
   height="1498.000000pt"
   viewBox="0 0 1242.000000 1498.000000"
   preserveAspectRatio="xMidYMid meet"
   id="svg1"
   sodipodi:docname="color.svg"
   inkscape:version="1.4 (e7c3feb1, 2024-10-09)"
   xmlns:inkscape="http://www.inkscape.org/namespaces/inkscape"
   xmlns:sodipodi="http://sodipodi.sourceforge.net/DTD/sodipodi-0.dtd"
   xmlns="http://www.w3.org/2000/svg"
   xmlns:svg="http://www.w3.org/2000/svg">
  <defs
     id="defs1" />
  <sodipodi:namedview
     id="namedview1"
     pagecolor="#ffffff"
     bordercolor="#000000"
     borderopacity="0.25"
     inkscape:showpageshadow="2"
     inkscape:pageopacity="0.0"
     inkscape:pagecheckerboard="0"
     inkscape:deskcolor="#d1d1d1"
     inkscape:document-units="pt"
     inkscape:zoom="0.50517356"
     inkscape:cx="828.42815"
     inkscape:cy="998.66667"
     inkscape:window-width="1480"
     inkscape:window-height="1186"
     inkscape:window-x="2994"
     inkscape:window-y="88"
     inkscape:window-maximized="0"
     inkscape:current-layer="g1" />
  <metadata
     id="metadata1">
Created by potrace 1.16, written by Peter Selinger 2001-2019
</metadata>
  <g
     transform="translate(0.000000,1498.000000) scale(1.000000,-1.000000)"
     fill="#cccccc"
     stroke="none"
     id="g1">
    <path
       d="m 157,797.00005 c -81.000001,-81 -118.000001,-161 -118.000001,-253 0,-41 6,-76 22,-116 C 107,305.00005 233,175.00005 371,108.00005 c 73,-36 128,-53 218,-66 25,-4 31,-4 56,-5 16,0 33,-1 39,-2 9,-1 13,-1 27,0 8,1 23,2 33,2 32,0 69,4 133,16 100,18 209,55 312,104 l 15,7 -3,5 c -11,19 -45,60 -72,88 -94,94 -207,162 -343,205 -103,33 -165,47 -238,52 -8,1 -24,2 -35,3 -11,2 -29,4 -39,4 -130,11 -213,41 -260,94 -29,33 -43,70 -46,120 0,14 6,62 12,81 1,4 -2,2 -23,-19 z"
       id="path1-8"
       style="display:inline;fill:#1a1a1a"
       transform="translate(0,2.5e-5)" />
    <path
       d="m 988,267 c 37,-14 47,-61 19,-89 -10,-10 -26,-16 -40,-15 -33,3 -55,35 -47,66 4,19 20,34 38,40 7,2 23,1 30,-2 z"
       id="path1"
       sodipodi:nodetypes="cscccc"
       style="fill:#ffffff"
       inkscape:label="outer eye" />
    <path
       d="m 136,577.00005 c 17,-23 50,-54 75,-70 48,-31 86,-42 171,-50 10,0 27,-2 37,-3 10,-1 29,-3 42,-4 47,-4 137,-15 182,-23 107,-17 184,-43 210,-70 l 5,-5 v -7 c -2,-19 -27,-49 -45,-54 -6,-2 -9,-1 -29,11 -33,20 -84,38 -146,51 -47,11 -85,17 -207,35 -177,26 -220,39 -255,81 -23,27 -39,62 -47,101 -2,11 -3,17 -2,17 1,0 4,-5 9,-10 z"
       style="fill:#ffffff"
       id="path1-60"
       inkscape:label="top stripe"
       transform="translate(0,2.5e-5)" />
    <path
       d="m 261,310.00003 c 12,-6 33,-16 58,-25 108,-42 228,-75 321,-87 41,-6 95,-8 121,-4 23,3 24,3 28,-2 14,-16 17,-60 5,-71 -6,-4 -9,-5 -46,-4 -39,0 -48,1 -98,9 -142,22 -279,77 -363,144 -19,15 -55,51 -55,55 0,1 4,-2 10,-5 5,-3 14,-8 19,-10 z"
       style="fill:#ffffff"
       id="path1-4"
       inkscape:label="bottom stripe" />
    <path
       d="m 962.99995,237 c -9,-3 -13,-10 -13,-22 0,-11 7,-19 19,-20 10,-1 17,3 21,11 8,19 -8,37 -27,31 z"
       id="path1-1"
       style="fill:#4c8f98;fill-opacity:1"
       inkscape:label="inner eye" />
    <path
       d="M 459,1258 C 421,1219 354,1136 310,1073 260,1001 216,920 196,862 c -5,-15 -11,-37 -11,-38 0,0 7,5 14,11 36,28 80,58 125,82 30,17 34,19 48,26 84,43 195,86 291,113 11,4 20,6 21,7 1,0 -1,1 -5,3 -110,39 -176,69 -190,83 -6,7 -13,24 -15,38 -2,16 -1,69 2,84 0,2 0,3 -1,3 0,0 -8,-7 -16,-16 z"
       id="path1-3"
       inkscape:label="tail"
       style="fill:#1a1a1a;fill-opacity:1" />
    <path
       d="m 811.99999,997 c -7,-10 -16,-21 -20,-24 -19,-17 -49,-33 -76,-40 -11,-2 -58,-2 -72,0 -26,5 -58,18 -82,34 l -10,7 -31,-14 c -103,-44 -134,-58 -133,-59 1,-2 38,-26 53,-35 88,-52 181,-83 258,-85 71,-1 117,8 172,35 35,18 82,53 103,76 l 5,6 -4,6 c -27,39 -50,60 -96,85 -22,13 -49,25 -53,25 -1,0 -7,-8 -14,-17 z"
       id="path1-99"
       inkscape:label="splash4"
       style="fill:#035361;fill-opacity:1" />
    <path
       d="m 584.99998,1163 c 10,-5 41,-16 108,-40 10,-3 30,-11 45,-17 14,-6 30,-12 36,-14 28,-11 103,-44 131,-60 67,-36 96.00002,-60 116.00002,-97 17,-30 23,-52 22,-80 -2,-30 -12,-51 -37,-74 -30.00002,-28 -46.00002,-49 -56.00002,-75 -4,-11 -4,-34 1,-48 4,-12 19,-29 35,-39 C 1015,599 1048,597 1077,612 c 54,27 93,73 107,127 10,38 1,105 -20,153 -16,37 -25,50 -48,80 -17,21 -21,25 -40,40 -8,7 -17,14 -20,16 -16,15 -63.00002,41 -105.00002,60 -43,18 -56,23 -97,34 -16,5 -34,9 -41,11 -16,5 -34,9 -68,14 -14,3 -31,6 -37,7 -9,2 -19,2 -38,3 -29,1 -29,1 -51,5 -8,1 -21,2 -27,3 h -12 z"
       id="path1-9"
       inkscape:label="splash3"
       style="fill:#4c8f98;fill-opacity:1" />
    <path
       d="m 806.99999,1391 c -47,-5 -101,-31 -141,-65 -32,-27 -65,-66 -85,-99 l -6,-10 c 0,-2 11,4 27,13 54,31 94,50 132,62 21,7 29,8 46,8 28,-1 48,-10 66,-28 21,-20 28,-39 29,-77 l 1,-23 23,-6 c 36,-8 43,-10 75,-26 C 1001,1126 1004,1125 1035,1106 c 12,-8 24,-15 27,-16 l 5,-3 2,8 c 3,11 5,22 7,44 3,22 3,33 -2,61 -8,50 -39,98 -83.00001,131 -60,45 -127,66 -184,60 z"
       id="path1-6"
       inkscape:label="splash2"
       transform="translate(0,2.5e-5)"
       style="fill:#035361;fill-opacity:1" />
    <path
       d="m 330.99999,20.00003 c -18,2.999999 -40,15.999999 -55,30.999999 -6,7 -6.99999,10 -6.99999,28.999999 0,20.000002 0.99999,22.000002 9.99999,34.000002 24,30 46,44 65,40 16,-3 35,-13 46,-25 9,-9 9,-12 2,-28 -5,-10.000002 -6,-11.000002 -4,-13.000002 3,-4 26,2 46,12.000002 21,10 51,32 63,46 15,16 23,49 28,108.99999 v 8 l 3,-6 c 7,-15.99999 13,-63.99999 10,-83.99999 -3,-22 -8,-44 -11,-47 -1,-1 -1,-2 -1,-3 0,-6 -26,-42.000002 -40,-55.000001 -21,-21 -73,-44 -106,-47.999999 -10,-1 -42,-1 -49,0 z"
       id="path1-7"
       transform="matrix(0.99999998,0,0,-0.99999998,0,1498)"
       inkscape:label="splash1"
       style="fill:#4c8f98;fill-opacity:1" />
  </g>
</svg>
