<svg version="1.0" width="1656" height="1997.333" viewBox="0 0 1242 1498" xmlns="http://www.w3.org/2000/svg"><g fill="#ccc"><path d="M157 797C76 716 39 636 39 544c0-41 6-76 22-116 46-123 172-253 310-320 73-36 128-53 218-66 25-4 31-4 56-5 16 0 33-1 39-2 9-1 13-1 27 0 8 1 23 2 33 2 32 0 69 4 133 16 100 18 209 55 312 104l15 7-3 5c-11 19-45 60-72 88-94 94-207 162-343 205-103 33-165 47-238 52-8 1-24 2-35 3-11 2-29 4-39 4-130 11-213 41-260 94-29 33-43 70-46 120 0 14 6 62 12 81 1 4-2 2-23-19z" style="display:inline;fill:#1a1a1a" transform="matrix(1 0 0 -1 0 1498)"/><path d="M988 267c37-14 47-61 19-89-10-10-26-16-40-15-33 3-55 35-47 66 4 19 20 34 38 40 7 2 23 1 30-2zM136 577c17-23 50-54 75-70 48-31 86-42 171-50 10 0 27-2 37-3s29-3 42-4c47-4 137-15 182-23 107-17 184-43 210-70l5-5v-7c-2-19-27-49-45-54-6-2-9-1-29 11-33 20-84 38-146 51-47 11-85 17-207 35-177 26-220 39-255 81-23 27-39 62-47 101-2 11-3 17-2 17s4-5 9-10zM261 310c12-6 33-16 58-25 108-42 228-75 321-87 41-6 95-8 121-4 23 3 24 3 28-2 14-16 17-60 5-71-6-4-9-5-46-4-39 0-48 1-98 9-142 22-279 77-363 144-19 15-55 51-55 55 0 1 4-2 10-5 5-3 14-8 19-10z" style="fill:#fff" transform="matrix(1 0 0 -1 0 1498)"/><path d="M963 237c-9-3-13-10-13-22 0-11 7-19 19-20 10-1 17 3 21 11 8 19-8 37-27 31z" style="fill:#4c8f98;fill-opacity:1" transform="matrix(1 0 0 -1 0 1498)"/><path d="M459 1258c-38-39-105-122-149-185-50-72-94-153-114-211-5-15-11-37-11-38 0 0 7 5 14 11 36 28 80 58 125 82 30 17 34 19 48 26 84 43 195 86 291 113 11 4 20 6 21 7 1 0-1 1-5 3-110 39-176 69-190 83-6 7-13 24-15 38-2 16-1 69 2 84 0 2 0 3-1 3 0 0-8-7-16-16z" style="fill:#1a1a1a;fill-opacity:1" transform="matrix(1 0 0 -1 0 1498)"/><path d="M812 997c-7-10-16-21-20-24-19-17-49-33-76-40-11-2-58-2-72 0-26 5-58 18-82 34l-10 7-31-14c-103-44-134-58-133-59 1-2 38-26 53-35 88-52 181-83 258-85 71-1 117 8 172 35 35 18 82 53 103 76l5 6-4 6c-27 39-50 60-96 85-22 13-49 25-53 25-1 0-7-8-14-17z" style="fill:#035361;fill-opacity:1" transform="matrix(1 0 0 -1 0 1498)"/><path d="M585 1163c10-5 41-16 108-40 10-3 30-11 45-17 14-6 30-12 36-14 28-11 103-44 131-60 67-36 96-60 116-97 17-30 23-52 22-80-2-30-12-51-37-74-30-28-46-49-56-75-4-11-4-34 1-48 4-12 19-29 35-39 29-20 62-22 91-7 54 27 93 73 107 127 10 38 1 105-20 153-16 37-25 50-48 80-17 21-21 25-40 40-8 7-17 14-20 16-16 15-63 41-105 60-43 18-56 23-97 34-16 5-34 9-41 11-16 5-34 9-68 14-14 3-31 6-37 7-9 2-19 2-38 3-29 1-29 1-51 5-8 1-21 2-27 3h-12z" style="fill:#4c8f98;fill-opacity:1" transform="matrix(1 0 0 -1 0 1498)"/><path d="M807 1391c-47-5-101-31-141-65-32-27-65-66-85-99l-6-10c0-2 11 4 27 13 54 31 94 50 132 62 21 7 29 8 46 8 28-1 48-10 66-28 21-20 28-39 29-77l1-23 23-6c36-8 43-10 75-26 27-14 30-15 61-34 12-8 24-15 27-16l5-3 2 8c3 11 5 22 7 44 3 22 3 33-2 61-8 50-39 98-83 131-60 45-127 66-184 60z" transform="matrix(1 0 0 -1 0 1498)" style="fill:#035361;fill-opacity:1"/><path d="M331 20c-18 3-40 16-55 31-6 7-7 10-7 29 0 20 1 22 10 34 24 30 46 44 65 40 16-3 35-13 46-25 9-9 9-12 2-28-5-10-6-11-4-13 3-4 26 2 46 12 21 10 51 32 63 46 15 16 23 49 28 109v8l3-6c7-16 13-64 10-84-3-22-8-44-11-47-1-1-1-2-1-3 0-6-26-42-40-55-21-21-73-44-106-48-10-1-42-1-49 0z" transform="rotate(.011)" style="fill:#4c8f98;fill-opacity:1"/></g></svg>